<!-- <svg xmlns="http://www.w3.org/2000/svg" x="0px" y="0px" width="100" height="100" viewBox="0 0 30 30">
<path d="M 13 3 C 7.4889971 3 3 7.4889971 3 13 C 3 18.511003 7.4889971 23 13 23 C 15.396508 23 17.597385 22.148986 19.322266 20.736328 L 25.292969 26.707031 A 1.0001 1.0001 0 1 0 26.707031 25.292969 L 20.736328 19.322266 C 22.148986 17.597385 23 15.396508 23 13 C 23 7.4889971 18.511003 3 13 3 z M 13 5 C 17.430123 5 21 8.5698774 21 13 C 21 17.430123 17.430123 21 13 21 C 8.5698774 21 5 17.430123 5 13 C 5 8.5698774 8.5698774 5 13 5 z"></path>
</svg> -->
<svg xmlns="http://www.w3.org/2000/svg" style="fill: white;" data-encore-id="icon" role="img" aria-hidden="true" class="Svg-sc-ytk21e-0 bneLcE search-active-icon" viewBox="0 0 24 24"><path d="M15.356 10.558c0 2.623-2.16 4.75-4.823 4.75-2.664 0-4.824-2.127-4.824-4.75s2.16-4.75 4.824-4.75c2.664 0 4.823 2.127 4.823 4.75z"></path><path d="M1.126 10.558c0-5.14 4.226-9.28 9.407-9.28 5.18 0 9.407 4.14 9.407 9.28a9.157 9.157 0 0 1-2.077 5.816l4.344 4.344a1 1 0 0 1-1.414 1.414l-4.353-4.353a9.454 9.454 0 0 1-5.907 2.058c-5.18 0-9.407-4.14-9.407-9.28zm9.407-7.28c-4.105 0-7.407 3.274-7.407 7.28s3.302 7.279 7.407 7.279 7.407-3.273 7.407-7.28c0-4.005-3.302-7.278-7.407-7.278z"></path></svg>